<svg fill="none" height="14" viewBox="0 0 20 14" width="20" xmlns="http://www.w3.org/2000/svg"><path clip-rule="evenodd" d="m17.4714.171748c3.3715 3.873612 3.3715 9.782912 0 13.656552-.1813.2083-.4971.2302-.7054.0489s-.2302-.4972-.0489-.7055c3.0439-3.49718 3.0439-8.84621 0-12.343433-.1813-.208297-.1594-.524121.0489-.705414s.5241-.1594021.7054.048895zm-14.2374-.048894c.2083.181293.23019.497118.04889.705414-3.043854 3.497232-3.043854 8.846252 0 12.343432.1813.2083.15941.5242-.04889.7055s-.52412.1594-.70541-.0489c-3.371452-3.87364-3.371452-9.78294 0-13.656553.18129-.2082965.49711-.2301867.70541-.048893zm2.27173 2.553556c.18607-.20404.1715-.52029-.03255-.70636-.20404-.18606-.52029-.17149-.70636.03255-2.55283 2.7995-2.55283 7.19532 0 9.9948.18607.2041.50232.2186.70636.0326.20405-.1861.21862-.5024.03255-.7064-2.20471-2.41773-2.20471-6.22946 0-8.64719zm9.72747-.6738c2.5528 2.79949 2.5528 7.19531 0 9.99479-.1861.2041-.5023.2186-.7064.0326-.204-.1861-.2186-.5023-.0325-.7064 2.2047-2.41773 2.2047-6.22946 0-8.64719-.1861-.20405-.1715-.52029.0325-.70636.2041-.18606.5203-.17149.7064.03256zm-7.699 2.73503c.18086-.20868.15831-.52446-.05037-.70531-.20867-.18086-.52445-.15831-.70531.05036-1.43719 1.65823-1.43719 4.17721 0 5.83545.18086.20866.49664.23126.70531.05036.20868-.18086.23123-.49664.05037-.70531-1.11143-1.28237-1.11143-3.24319 0-4.52555zm5.6881-.65495c1.4372 1.65823 1.4372 4.17721 0 5.83545-.1809.20866-.4966.23126-.7053.05036-.2087-.18086-.2312-.49664-.0504-.70531 1.1114-1.28237 1.1114-3.24319 0-4.52555-.1808-.20868-.1583-.52446.0504-.70531.2087-.18086.5244-.15831.7053.05036zm-1.7223 2.91731c0-.82786-.6721-1.5-1.5-1.5-.82786 0-1.5.67214-1.5 1.5s.67214 1.5 1.5 1.5c.8279 0 1.5-.67214 1.5-1.5z" fill="#16182a" fill-rule="evenodd"/></svg>