<svg height="24" viewBox="0 0 24 24" width="24" xmlns="http://www.w3.org/2000/svg"><g fill="none" fill-rule="evenodd"><path d="m0 0h24v24h-24z"/><path d="m12 2c5.5210347 0 10 4.47896525 10 10 0 5.5210347-4.4789653 10-10 10-5.52103475 0-10-4.4789653-10-10 0-5.52103475 4.47896525-10 10-10zm0 2c-4.41646525 0-8 3.58353475-8 8 0 4.4164653 3.58353475 8 8 8 4.4164653 0 8-3.5835347 8-8 0-4.41646525-3.5835347-8-8-8zm0 11.3707812c.5143125 0 .9375.4231875.9375.9375s-.4231875.9375-.9375.9375-.9375-.4231875-.9375-.9375.4231875-.9375.9375-.9375zm-.0001875-8.86843745c.6998941 0 1.2690625.56916838 1.2687964 1.29213328l-.2697109 5.75245767c-.0597058 1.2707017-1.9379824 1.2707785-1.9977921.0000817l-.2704496-5.77561015c0-.6953023.561954-1.26257327 1.2572605-1.2690625z" fill="#f06b52"/></g></svg>