<svg height="24" viewBox="0 0 24 24" width="24" xmlns="http://www.w3.org/2000/svg"><g fill="none" fill-rule="evenodd"><path d="m0 0h24v24h-24z"/><path d="m13.2593809 3.23483747.0908072.08688742 7.3846153 8.00000001c.3241292.3511399.3511399.8765325.0810323 1.2567145l-.0810323.0998457-7.3846153 8c-.3746038.4058207-1.0072629.4311271-1.4130836.0565233-.3746037-.345788-.4249822-.9114576-.1358802-1.3156266l.0793569-.0974569 5.8114188-6.2957199-13.692.0007677c-.55228475 0-1-.4477153-1-1 0-.5128359.38604019-.9355072.88337887-.9932723l.11662113-.0067277 13.74-.0007677-5.8594188-6.34771991c-.3457881-.37460375-.3508244-.94248986-.0303641-1.32227637l.0868874-.09080717c.3433868-.31697241.8491844-.34761864 1.2236317-.10368914z" fill="#a5a6ac"/></g></svg>