<svg fill="none" height="24" viewBox="0 0 24 24" width="24" xmlns="http://www.w3.org/2000/svg"><path clip-rule="evenodd" d="m4.49641 3.64645-.06925-.05786-.07624-.04339c-.18448-.08437-.40975-.05062-.56162.10125-.19526.19526-.19526.51184 0 .7071l15 15.00005.0693.0578c.1948.135.4642.1157.6378-.0578.1953-.1953.1953-.5119 0-.7072zm-1.35947 3.43763c.2099-.17943.23461-.49505.05518-.70495s-.49505-.23461-.70495-.05518c-.62545.53465-.98636 1.31701-.98717 2.13984v6.78621l.00565.1709c.09314 1.4699 1.32452 2.6462 2.81434 2.6505h8.21571l.2058-.0073c.342-.0249.6774-.1125.989-.2589.2499-.1174.3573-.4152.2399-.6652-.1175-.2499-.4153-.3573-.6652-.2398-.2406.113-.5032.1715-.769.1712h-8.21477l-.14797-.0065c-.92791-.0791-1.67074-.8691-1.67346-1.8163v-6.78431l.0087-.17565c.0457-.46491.26963-.89801.62824-1.20456zm9.42176-1.44122c1.4783.00456 2.7001 1.17175 2.7928 2.63044l.0056.16956v3.05714c0 .2761-.2238.5-.5.5-.2454 0-.4496-.1769-.4919-.4101l-.0081-.0899v-3.0556c-.0028-.93606-.7369-1.71676-1.6537-1.79509l-.1463-.00645h-2.69996c-.27614 0-.5-.22386-.5-.5 0-.24546.17688-.44961.41013-.49195l.08987-.00805zm8.727.69732c-.17 0-.3381.03568-.4934.10476l-3.777 2.64709c-.3228.22727-.5153.59796-.5153.99277v3.5447c0 .3948.1925.7655.5153.9928l3.6924 2.5991c.2399.117.408.1527.578.1527.668 0 1.2143-.5463 1.2143-1.2143v-8.60534c0-.66797-.5463-1.21428-1.2143-1.21428zm-.0287.98882-.0062.00752.0046.00358.0303.00008c.1157 0 .2143.0986.2143.21428v8.60534c0 .1157-.0986.2143-.2143.2143-.03 0-.0596-.0063-.087-.0185l-3.6078-2.5511c-.0568-.04-.0909-.1056-.0909-.175v-3.5447c0-.0694.0341-.13504.0909-.17504z" fill="#fff" fill-rule="evenodd"/></svg>