<svg height="18" viewBox="0 0 18 18" width="18" xmlns="http://www.w3.org/2000/svg"><path d="m4.61289944 3.20970461.09420734.08318861 7.29289322 7.29210678 7.2928932-7.29210678c.3905243-.39052429 1.0236893-.39052429 1.4142136 0 .3604839.36048396.3882135.92771502.0831886 1.32000622l-.0831886.09420734-7.2921068 7.29289322 7.2921068 7.2928932c.3905243.3905243.3905243 1.0236893 0 1.4142136-.360484.3604839-.927715.3882135-1.3200062.0831886l-.0942074-.0831886-7.2928932-7.2921068-7.29289322 7.2921068c-.39052429.3905243-1.02368927.3905243-1.41421356 0-.36048396-.360484-.3882135-.927715-.08318861-1.3200062l.08318861-.0942074 7.29210678-7.2928932-7.29210678-7.29289322c-.39052429-.39052429-.39052429-1.02368927 0-1.41421356.33044363-.33044363.83461225-.38128111 1.21850973-.15251245z" fill="#16182a" transform="translate(-3 -3)"/></svg>