<svg fill="none" height="24" viewBox="0 0 24 24" width="24" xmlns="http://www.w3.org/2000/svg"><path clip-rule="evenodd" d="m4.6129 3.2097.09421.08319 7.29289 7.29211 7.2929-7.29211c.3905-.39052 1.0237-.39052 1.4142 0 .3605.36049.3882.92772.0832 1.32001l-.0832.09421-7.2921 7.29289 7.2921 7.2929c.3905.3905.3905 1.0237 0 1.4142-.3605.3605-.9277.3882-1.32.0832l-.0942-.0832-7.2929-7.2921-7.29289 7.2921c-.39053.3905-1.02369.3905-1.41422 0-.36048-.3605-.38821-.9277-.08319-1.32l.08319-.0942 7.29211-7.2929-7.29211-7.29289c-.39052-.39053-.39052-1.02369 0-1.41422.33045-.33044.83462-.38128 1.21851-.15251z" fill="#16182a" fill-rule="evenodd"/></svg>