<svg fill="none" height="82" viewBox="0 0 82 82" width="82" xmlns="http://www.w3.org/2000/svg"><path d="m81 41c0 22.0914-17.9086 40-40 40s-40-17.9086-40-40 17.9086-40 40-40 40 17.9086 40 40z" fill="#fffbf3"/><path clip-rule="evenodd" d="m82 41c0 22.6437-18.3563 41-41 41s-41-18.3563-41-41 18.3563-41 41-41 41 18.3563 41 41zm-41 40c22.0914 0 40-17.9086 40-40s-17.9086-40-40-40-40 17.9086-40 40 17.9086 40 40 40z" fill="#16182a" fill-rule="evenodd"/><path clip-rule="evenodd" d="m77.7426 56.8363c-6.8926 12.046-19.8697 20.1633-34.7426 20.1633-22.0914 0-40-17.9086-40-40 0-5.6257 1.16134-10.98 3.25734-15.8365-3.34528 5.8464-5.25734 12.6183-5.25734 19.8367 0 22.0914 17.9086 40 40 40 16.4658 0 30.6078-9.949 36.7426-24.1635z" fill="#ffcc59" fill-rule="evenodd"/><path d="m49.5 49.5c0 3.3137-4 7.5-8.5 7.5s-8.5-4.1863-8.5-7.5 4.634-4.5 8.5-4.5 8.5 1.1863 8.5 4.5z" fill="#fff"/><path clip-rule="evenodd" d="m41 56.1799c-.4422.2043-1.0801.3201-2 .3201-1 0-4-1.4812-4-3s2.3431-2.5 4-2.5c.7684 0 1.4692.2648 2 .7002.5308-.4354 1.2316-.7002 2-.7002 1.6569 0 4 .9812 4 2.5s-3 3-4 3c-.9199 0-1.5578-.1158-2-.3201z" fill="#ffcc59" fill-rule="evenodd"/><g fill="#16182a"><path clip-rule="evenodd" d="m46.2546 53.7622c1.4392-1.3456 2.2454-2.9745 2.2454-4.2622 0-1.0749-.7172-1.9341-2.1976-2.575-1.472-.6373-3.4477-.925-5.3024-.925s-3.8304.2877-5.3024.925c-1.4804.6409-2.1976 1.5001-2.1976 2.575 0 1.2877.8062 2.9166 2.2454 4.2622 1.4205 1.3279 3.3117 2.2378 5.2546 2.2378s3.8341-.9099 5.2546-2.2378zm-5.2546 3.2378c4.5 0 8.5-4.1863 8.5-7.5s-4.634-4.5-8.5-4.5-8.5 1.1863-8.5 4.5 4 7.5 8.5 7.5z" fill-rule="evenodd"/><circle cx="30" cy="35" r="4"/><circle cx="52" cy="35" r="4"/></g></svg>