<svg height="11" viewBox="0 0 19 11" width="19" xmlns="http://www.w3.org/2000/svg"><path d="m17.465969.14112057c.6592271-.38952732 1.4503857.07366359 1.5278535.82268133l.0061775.1205586v8.8307046c0 .7770943-.7575092 1.2987872-1.4281717.9991372l-.1050493-.0542212-7.6896663-4.5180189-.0841058-.0555209.000926 3.6286238c0 .7770943-.75750916 1.2987872-1.42817167.9991372l-.10504926-.0542212-7.68966629-4.5180189c-.59112325-.3472061-.6258952-1.2076326-.10427813-1.6152397l.1043234-.070884 7.68894537-4.51479733c.65953527-.38934312 1.45029518.07372515 1.52772238.82275726l.0061742.12056207-.000389 3.6279099.0836141-.0564319zm.7740308.94323993c0-.21611374-.1728082-.35013581-.3322322-.30574141l-.058793.02519931-7.6896641 4.5152206c-.1065701.0625957-.1217944.2285366-.0456458.3206755l.0456889.0390992 7.6898481 4.5181257c.1525974.0897449.3426893-.0106411.383048-.2048402l.0077501-.0770341zm-9.30606708 0c0-.21623431-.17263503-.35018957-.33217448-.30575486l-.05885068.02521276-7.68966416 4.5152206c-.10657009.0625957-.12179439.2285366-.04564573.3206755l.04568888.0390992 7.6898481 4.5181257c.15259743.0897449.34268926-.0106411.38304797-.2048402l.0077501-.0770341z" fill="#16182a" transform="matrix(-1 0 0 1 19 0)"/></svg>