<svg fill="none" height="18" viewBox="0 0 81 18" width="81" xmlns="http://www.w3.org/2000/svg" xmlns:xlink="http://www.w3.org/1999/xlink"><clipPath id="a"><path d="m0 0h80.25v18h-80.25z"/></clipPath><g clip-path="url(#a)" clip-rule="evenodd" fill="#16182a" fill-rule="evenodd"><path d="m17.3719.717037c1.1263.418883 1.5599 2.560663 3.467 2.895783 1.3198.23193 2.0938-1.30036 3.7089-.60351 1.6965.73199 1.8034 6.10798 1.753 7.40439-.1747 4.5264-2.9567 7.5458-7.1631 7.5458s-7.3818-3.4024-7.1229-7.6773c.083-1.37167 1.2231-3.79983 1.8912-5.53001.5935-1.53687.9676-4.964276 3.4659-4.035153zm1.7643 6.019293h.0011c2.5883 0 4.7181 2.13027 4.7181 4.71907s-2.1298 4.7191-4.7181 4.7191c-2.5882 0-4.718-2.1303-4.718-4.7191.0012-2.58789 2.1296-4.71719 4.7169-4.71907z"/><path d="m6.5178 17.9677c2.9898 0 4.6043-2.169 4.6043-4.2794 0-.5569-.7176-.6742-1.0763-.1759-.23922.6742-.83719 1.319-2.03312 1.319-.86705 0-1.52479-.7035-1.52479-1.8759v-7.6502h3.43828c.32883 0 .59793-.23448.59793-.58622v-.49829c0-.35173-.2691-.61553-.59793-.61553h-3.43828l-.02991-2.901794c0-.439666-.23917-.703466-.65774-.703466h-.59797c-.32889 0-.59796.2638-.68764.703466-.32889 1.729354-1.49493 2.901794-3.16922 2.901794h-.74745c-.388675 0-.59796.23449-.59796.61553v.49829c0 .35174.239183.58622.59796.58622h1.40521v7.5916c0 3.3414 1.7939 5.0708 4.51463 5.0708z"/><path d="m33.839 17.9677c2.9899 0 4.6042-2.169 4.6042-4.2794 0-.5569-.7172-.6742-1.0762-.1759-.2392.6742-.8371 1.319-2.033 1.319-.8671 0-1.5248-.7035-1.5248-1.8759v-7.6502h3.4383c.329 0 .598-.23448.598-.58622v-.49829c0-.35173-.269-.61553-.598-.61553h-3.4383l-.0299-2.901794c0-.439666-.2392-.703466-.6578-.703466h-.5979c-.3289 0-.598.2638-.6877.703466-.3289 1.729354-1.4949 2.901794-3.1692 2.901794h-.7474c-.3887 0-.598.23449-.598.61553v.49829c0 .35174.2392.58622.598.58622h1.4052v7.5916c0 3.3414 1.7938 5.0708 4.5145 5.0708z"/><path d="m51.5978 13.2193c-.5681.9087-1.8237 1.7001-3.5579 1.7001-2.0033 0-3.5279-1.2018-4.3052-3.0777 1.0764.0879 2.3621.0879 3.6774-.1759 2.8106-.4983 4.7838-2.13968 4.7838-4.25008 0-2.57937-2.362-4.13286-5.7107-4.10354-4.0361.02931-7.325 2.90179-7.325 7.21052 0 4.4553 3.1093 7.445 7.5046 7.445 4.0061 0 5.8001-2.7259 5.9496-4.426.0598-.6155-.6578-.7621-1.0166-.3224zm-5.6806-8.55882c1.2856 0 2.1824 1.17245 2.2125 2.57938 0 2.02246-.8074 2.81384-2.063 3.04834-.7773.1759-1.8237.2052-2.7505.1466-.1199-.58626-.1796-1.20179-.1796-1.84663 0-2.25696 1.1064-3.92769 2.7806-3.92769z"/><path d="m79.1568 14.8315-.3588-5.21741c-.3588-4.7777-2.8403-6.30188-5.5611-6.30188-2.0033 0-3.7371.96727-4.5445 2.638-1.0167-1.72935-2.8403-2.638-4.963-2.638-1.764 0-3.2589.82071-4.126 2.1104v-1.37762c0-.55691-.3588-.96727-1.0463-.61553l-3.7672 1.70004c-.3588.17587-.6278.32242-.6278.61553v.11725c0 .73277 1.4649.87933 1.4649 2.16902v6.8295c0 1.2604-1.2857 1.4948-1.2857 2.2276v.1173c0 .3224.2991.4983.6876.4983h5.5611c.4185 0 .6875-.1759.6875-.4983v-.1173c0-.7328-1.2852-.9672-1.2852-2.2276v-6.62433c0-1.84659.9268-3.25353 2.5709-3.25353 1.525 0 2.6013 1.43625 2.6013 4.16218v5.71568c0 1.2604-1.0763 1.4948-1.0763 2.2276v.1173c0 .3224.299.4983.6875.4983h5.1723c.3888 0 .6578-.1759.6578-.4983v-.1173c0-.7328-1.0463-.9672-1.0463-2.2276v-5.42257c0-.49829-.03-.96727-.1195-1.40693.0598-1.75867 1.0163-3.04836 2.4214-3.04836 1.5847 0 2.4519 1.20176 2.6014 4.51391l.2991 5.36395c.0894 1.2604-1.0468 1.4948-1.0468 2.2276v.1173c0 .3224.2694.4983.688.4983h5.1722c.3885 0 .6579-.1759.6579-.4983v-.1173c0-.7328-.9866-.9672-1.0764-2.2569z"/></g></svg>