<svg height="20" viewBox="0 0 20 20" width="20" xmlns="http://www.w3.org/2000/svg"><path d="m10 0c5.5210347 0 10 4.47896525 10 10 0 5.5210347-4.4789653 10-10 10-5.52103475 0-10-4.4789653-10-10 0-5.52103475 4.47896525-10 10-10zm0 1c-4.96875 0-9 4.03125-9 9s4.03125 9 9 9 9-4.03125 9-9-4.03125-9-9-9zm0 12.3707812c.5143125 0 .9375.4231875.9375.9375s-.4231875.9375-.9375.9375-.9375-.4231875-.9375-.9375.4231875-.9375.9375-.9375zm-.0001875-8.86843745c.6561507 0 1.1974058.50024564 1.2622804 1.15848107l.006516.13365221-.2697109 5.75245767c-.0575735 1.2253195-1.8061394 1.2691524-1.9845912.1313652l-.0132009-.1312835-.2704497-5.77561015c0-.6518459.493905-1.19116428 1.128558-1.26137976l.1287026-.00768274z" fill="#16182a"/></svg>