<svg height="17" viewBox="0 0 19 17" width="19" xmlns="http://www.w3.org/2000/svg"><path d="m9.8.5c1.2837209 0 2.5910177 1.00642598 2.6935475 2.22201912l.0064525.15298088v1.875c0 .27614237-.2238576.5-.5.5-.2454599 0-.4496084-.17687516-.4919443-.41012437l-.0080557-.08987563v-1.875c0-.63835066-.7781826-1.2973939-1.561813-1.36865071l-.138187-.00634929h-6.96666667c-.68427626 0-1.26158728.54926916-1.32713849 1.24327628l-.00619484.13172372v11.25c0 .71053.53705319 1.3015848 1.20638275 1.3686621l.12695058.0063379h7.33333337c.6842723 0 1.2615868-.5492653 1.3271384-1.2432756l.0061949-.1317244v-1.875c0-.2761424.2238576-.5.5-.5.2454599 0 .4496084.1768752.4919443.4101244l.0080557.0898756v1.875c0 1.2479895-.9633296 2.2852057-2.1740669 2.3694738l-.1592664.0055262h-7.33333337c-1.23090987 0-2.24551563-.9852114-2.32792912-2.2134744l-.00540421-.1615256v-11.25c0-1.24798245.96332292-2.28520513 2.17406602-2.36947372l.15926731-.00552628zm4.7343055 3.83859116.0692479.05785545 3.75 3.74999999c.1735663.1735664.1928515.4429908.0578554.6378589l-.0578554.0692479-3.75 3.75c-.1952622.1952621-.5118446.1952621-.7071068 0-.1735663-.1735664-.1928515-.4429908-.0578554-.6378589l.0578554-.0692479 2.8715534-2.8714466-10.2692355-.0250015c-.2761415-.0006824-.4994453-.2250924-.49876605-.501234.00068545-.2761415.22509545-.4994453.50123705-.498763l10.3167645.0249985-2.9215534-2.92144661c-.1735663-.17356635-.1928515-.44299075-.0578554-.63785889l.0578554-.06924789c.1518706-.15187056.3771324-.18561957.5616214-.10124704z" fill="#16182a"/></svg>