<svg height="16" viewBox="0 0 16 16" width="16" xmlns="http://www.w3.org/2000/svg"><path d="m2 1.3 14.75 14.75-.7.7-3.45-3.45c-.9.7-2 1.1-3.1 1.2v1.5h1.5c.3 0 .5.2.5.5s-.2.5-.5.5h-4c-.3 0-.5-.2-.5-.5s.2-.5.5-.5h1.5v-1.5c-3.1-.3-5.45-2.9-5.5-6h1v.3c.1 2.65 2.3 4.8 5 4.7 1.05 0 2.05-.3 2.9-.9l-1.1-1.1c-.55.35-1.15.5-1.8.5-1.95 0-3.5-1.55-3.5-3.5v-2.3l-4.2-4.2zm13 7.2c-.05 1.15-.35 2.25-.95 3.25l-.75-.75c.45-.75.7-1.6.7-2.5zm-8.5-1.3v1.3c0 .5.15.95.4 1.35.7 1.05 2.05 1.4 3.15.9zm2.45-6.15c1.95-.05 3.55 1.5 3.55 3.45v4c0 .5-.1.95-.3 1.4l-.8-.8c.05-.2.1-.4.1-.6v-4c0-1.4-1.1-2.5-2.5-2.5-1.2.1-2.25.95-2.5 2.15l-.8-.75c.45-1.4 1.8-2.35 3.25-2.35z" fill="#16182a" transform="translate(-1 -1)"/></svg>