<svg height="32" viewBox="0 0 32 32" width="32" xmlns="http://www.w3.org/2000/svg"><path d="m11.5 6.5c.2454599 0 .4496084.17708647.4919443.41061433l.0080557.08998297v1.3292688c0 3.0310445-2.4174849 5.5325163-5.4690908 5.7949379l-.0009092 2.3735132 2.22.0004881c.2761424 0 .5.2241251.5.5005974 0 .2457531-.1768752.4501455-.4101244.492532l-.0898756.0080653h-5.5c-.27614237 0-.5-.2241251-.5-.5005973 0-.2457532.17687516-.4501455.41012437-.4925321l.08987563-.0080653 2.28-.0004881.0001735-2.3685664c-3.00683276-.2284698-5.41285287-2.6298897-5.52601018-5.5823126l-.00416332-.2175721v-1.3292688c0-.27647224.22385763-.5005973.5-.5005973.24545989 0 .44960837.17708647.49194433.41061433l.00805567.08998297v1.3292688c0 2.6439203 2.24730039 4.8164775 5 4.8164775 2.6783023 0 4.8781551-2.0567086 4.9951097-4.6031721l.0048903-.2133054v-1.3292688c0-.27647224.2238576-.5005973.5-.5005973zm-5.4999813-6.5c1.9513655 0 3.4999813 1.37658018 3.4999813 3.16669722v4.62498078c0 1.7822857-1.5872207 3.208322-3.4999813 3.208322-1.9008766 0-3.5000187-1.4489499-3.5000187-3.208322v-4.63835572c0-1.74569616 1.5835692-3.15332228 3.484972-3.15332228zm0 1h-.0150467c-1.3736358 0-2.484972.98786075-2.484972 2.15332228v4.63835572c0 1.1838823 1.130629 2.208322 2.5000187 2.208322 1.3829303 0 2.4999813-1.003613 2.4999813-2.208322v-4.62498078c0-1.20988676-1.0763861-2.16669722-2.4999813-2.16669722z" transform="translate(10 7)"/></svg>