<svg height="22" viewBox="0 0 14 22" width="14" xmlns="http://www.w3.org/2000/svg"><path d="m12.5 10.75c.2761424 0 .5.2238576.5.5 0 3.4077009-2.6549085 6.223117-5.99925428 6.4807772l-.00074572 2.7692228h2.5c.27614237 0 .5.2238576.5.5 0 .2454599-.17687516.4496084-.41012437.4919443l-.08987563.0080557h-6c-.27614237 0-.5-.2238576-.5-.5 0-.2454599.17687516-.4496084.41012437-.4919443l.08987563-.0080557h2.5l.0002582-2.7691455c-3.3448184-.2571741-6.0002582-3.0728126-6.0002582-6.4808545 0-.2761424.22385763-.5.5-.5.27614238 0 .5.2238576.5.5 0 3.0238576 2.47614237 5.5 5.5 5.5s5.5-2.4761424 5.5-5.5c0-.2761424.2238576-.5.5-.5zm-6-7c1.89818763 0 3.3971014 1.43564085 3.49491988 3.30510112l.00508012.19489888v5.2031c0 1.9551393-1.57481822 3.5469-3.5 3.5469-1.84964573 0-3.39386527-1.5112678-3.49475808-3.3550284l-.00524192-.1918716v-5.2181c0-1.8498851 1.46828273-3.37986456 3.29481587-3.47980777l.19018413-.00519223zm0 1h-.015c-1.30696377 0-2.3947331 1.03551468-2.47966351 2.32283072l-.00533649.16216928v5.2181c0 1.3815716 1.14319564 2.5469 2.5 2.5469 1.31566798 0 2.40925344-1.0521578 2.49463521-2.379593l.00536479-.167307v-5.2031c0-1.41135763-1.08864237-2.5-2.5-2.5zm0-2.803c.8520011 0 1.67868544.18357813 2.4822193.52703901.25391898.10853462.3717763.40236131.26324169.65628029-.10853462.25391898-.40236131.3717763-.65628029.26324169-.68402522-.29237835-1.37833652-.44656099-2.0891807-.44656099-.72852051 0-1.40589481.14953711-2.08636329.44534648-.25324823.11009063-.54779257-.00596154-.65788319-.25920977-.11009063-.25324823.00596154-.54779257.25920977-.65788319.8026848-.34893855 1.61494704-.52825352 2.48503671-.52825352zm0-1.947c1.61943299 0 2.72656532.29567773 4.2192891 1.02415348.2481672.12111002.3511674.42046838.2300574.66863561s-.4204684.35116745-.6686356.23005743c-1.36477204-.66603304-2.32638153-.92284652-3.7807109-.92284652-1.4720078 0-2.43591069.25496086-3.77759304.92131151-.24731947.12283197-.5473865.02191491-.67021847-.22540455-.12283197-.24731947-.02191491-.5473865.22540455-.67021847 1.47246825-.73130586 2.58540877-1.02568849 4.22240696-1.02568849z" fill="#16182a" transform="translate(.5 .5)"/></svg>