<svg height="24" viewBox="0 0 24 24" width="24" xmlns="http://www.w3.org/2000/svg"><path d="m12 2c5.4858523 0 10 4.51414773 10 10 0 5.4858523-4.5141477 10-10 10-5.48585227 0-10-4.5141477-10-10 0-5.48585227 4.51414773-10 10-10zm0 1c-4.93356752 0-9 4.06643248-9 9 0 4.9335675 4.06643248 9 9 9 4.9335675 0 9-4.0664325 9-9 0-4.93356752-4.0664325-9-9-9zm-.2 13c.5519 0 1 .4481 1 1s-.4481 1-1 1-1-.4481-1-1 .4481-1 1-1zm.1930799-9.99951255c.6431017-.00891336 1.2520405.10474852 1.6571266.31340561 1.101192.56718376 1.8497935 1.4396304 1.8497935 2.82640129 0 1.47868895-.5648698 2.19574925-2.1547248 3.34944395-.8101646.5879042-1.1131232 1.199457-1.1131232 2.0102617 0 .2761422-.2238576.5-.5.5s-.5-.2238578-.5-.5c0-1.1269115.4528359-2.0410069 1.5258054-2.8196182 1.352573-.9815084 1.7420426-1.4759148 1.7420426-2.54008745 0-.9360096-.5040799-1.52348557-1.3076986-1.93740024-.242928-.12513052-.6939366-.20931384-1.1841778-.20252052-.6558439.01064499-1.1991224.17973692-1.6314055.55655429-.1018003.08862949-.1945593.18102602-.2787688.27679152-.25359669.28839727-.4206625.59474757-.51878193.89882098-.03380403.10475916-.05483167.19253158-.06677634.25796318l-.01287308.099489c-.01223753.27587109-.2457957.48958831-.52166679.47735078-.27587108-.01223752-.4895883-.24579569-.47735078-.52166678.02198204-.49554205.24581409-1.1892005.84648623-1.87230185.11342259-.12898737.23767705-.2527563.37286996-.370458.62990993-.54908713 1.39825333-.78822903 2.27322333-.80242926z" fill="#16182a" fill-rule="evenodd"/></svg>