<svg height="24" viewBox="0 0 24 24" width="24" xmlns="http://www.w3.org/2000/svg"><g fill="none" fill-rule="evenodd" transform="translate(-342 -70)"><path d="m0 49h390v606.00037c.000004 54.138196-43.083501 98.445199-97.200478 99.960809-46.526376 1.303027-86.917596-1.033973-121.173662-7.011-84.3741399-14.72167-171.62586-18.802301-171.62586 85.155649 0 69.3053 0-192.063309 0-784.105828z" fill="#ffcc59" fill-opacity=".304562" transform="matrix(1 0 0 -1 0 893)"/><path d="m342 70h24v24h-24z"/><g transform="translate(345 73)"><path d="m12.9872201 4.5c-.1776125 2.47828125-1.99361 4.5-3.9872201 4.5-1.99361006 0-3.81277924-2.02125-3.98722012-4.5-.18123727-2.578125 1.58582619-4.5 3.98722012-4.5 2.4013939 0 4.1684574 1.96875 3.9872201 4.5z" fill="#fff"/><path d="m9 0c1.0786093 0 2.029246.3971843 2.732844 1.06412491-.2361981-.04247725-.4810336-.06412491-.732844-.06412491-2.40139393 0-4.16845739 1.921875-3.98722012 4.5.09831378 1.39700784.7190555 2.64869637 1.59901626 3.47512513-1.83564291-.2406516-3.43594937-2.15799604-3.59901626-4.47512513-.18123727-2.578125 1.58582619-4.5 3.98722012-4.5z" fill="#ffcc59"/><path d="m9 .41666667c1.0760955 0 2.0114604.4394997 2.6552968 1.1661372.6475497.73082844.9979448 1.74743461.9163226 2.88741101-.0816114 1.13874896-.5365464 2.17404488-1.2021897 2.92529376-.6417625.72429698-1.48204024 1.18782469-2.3694297 1.18782469-.88786784 0-1.72930279-.46385058-2.3715872-1.18873653-.66538644-.75095903-1.11989167-1.78561522-1.19999199-2.92381557-.08128636-1.15630946.26453677-2.17006986.90715691-2.89533472.64432052-.72718391 1.58374472-1.15877984 2.66442228-1.15877984z" stroke="#000" stroke-width=".833333"/><path d="m8.99976608 10c-4.07796739 0-8.21686992 2.4-8.98277782 6.93-.09234018.546.19733612 1.07.73309667 1.07h16.49936227c.5362293 0 .8259056-.524.7335654-1.07-.7663766-4.53-4.9052791-6.93-8.98324652-6.93z" fill="#fff"/><path d="m8.99976608 10c2.98149512 0 5.99556252 1.2828975 7.70035472 3.7431724-1.6352701-1.1513569-3.6753254-1.7431724-5.7003547-1.7431724-3.78917599 0-7.63096216 2.0721123-8.77053051 5.9997328l-1.47915066.0002672c-.53576055 0-.82543685-.524-.73309667-1.07.7659079-4.53 4.90481043-6.93 8.98277782-6.93z" fill="#ffcc59"/><path d="m8.99976608 10.4166667c2.06002792 0 4.13781792.6366129 5.74789882 1.8786873 1.4257999 1.0999134 2.4815589 2.6769368 2.824515 4.7041265l-16.82209497.5838528c.02048396-2.6110518 1.07611005-4.1880538 2.50182305-5.2879576 1.61001709-1.24209 3.68781922-1.878709 5.7478581-1.878709z" stroke="#000" stroke-width=".833333"/></g></g></svg>