<svg fill="none" height="24" viewBox="0 0 24 24" width="24" xmlns="http://www.w3.org/2000/svg"><path clip-rule="evenodd" d="m4 9.07626.00667.13391c.05743.57398.48011 1.05933 1.06052 1.17413l8.29381 1.6315-8.29251 1.6322c-.62587.123-1.06849.6771-1.06849 1.3086v4.7206c.00769.7285.58705 1.3226 1.3146 1.3226.14874 0 .29588-.0255.43529-.0748l17.25471-7.3756c.6137-.2739.9954-.8752.9954-1.5317 0-.6564-.3816-1.2577-.9809-1.5253l-17.16504-7.38191c-.90822-.40306-1.85406.31747-1.85406 1.24732zm1.44842-5.05174 17.16298 7.38098c.2354.1051.3886.3465.3886.6122s-.1532.5071-.3886.6122l-17.16298 7.3389c-.04186.0204-.08756.031-.13382.031-.17129 0-.31271-.145-.3146-.3226v-4.7206c0-.1594.11043-.2977.26158-.3274l9.94962-1.9581c.6976-.137.6976-1.1727 0-1.3098l-9.95002-1.958c-.15085-.02983-.26118-.16781-.26118-.32704v-4.71845c0-.23913.23627-.42744.44842-.33329z" fill="#16182a" fill-rule="evenodd"/></svg>