<svg fill="none" height="24" viewBox="0 0 24 24" width="24" xmlns="http://www.w3.org/2000/svg"><path d="m13.86 2.00008c.4212.0075.7849.28781.9167.70763l.03.11785.2907 2.12116c.0101.07209.054.13319.1167.16385.348.17226.6817.37274.997.59884.0394.02809.0865.03943.1321.03321l.0448-.0121 1.9518-.80574c.4042-.15782.8578-.0209 1.1164.32387l.0655.09912 1.8505 3.28384c.2135.37648.1547.84862-.1408 1.16573l-.0864.08245-1.6531 1.33121c-.0545.044-.0848.1164-.0776.1965.0166.2141.0253.4063.0253.5953-.0013.2205-.0122.4408-.0328.6604l-.0051.0418 1.7522 1.4103c.2934.2494.4077.6456.3125 1.0058l-.0395.1184-.0553.1144-1.8539 3.2898c-.2182.3774-.6563.5593-1.0747.4517l-.1134-.0366-1.9416-.8019c-.0596-.0244-.1273-.0164-.1831.0235-.3174.2242-.6509.4233-.9973.5956-.0437.0217-.0783.0606-.097.1086l-.013.0506-.2938 2.1421c-.0726.4263-.4101.7537-.8348.8132l-.1178.0095-3.7112-.0001c-.42113-.0074-.78485-.2877-.91669-.7076l-.03008-.1179-.29064-2.1212c-.0101-.072-.05395-.1331-.11677-.1638-.34779-.1722-.68151-.3727-.99702-.5988-.03932-.0281-.0864-.0394-.13204-.0332l-.04481.0121-1.95177.8057c-.4042.1579-.85771.0209-1.11636-.3238l-.06553-.0992-1.85053-3.2839c-.21346-.3764-.15468-.8485.14078-1.1656l.08643-.0825 1.65172-1.3301c.05427-.0442.0843-.1164.07714-.1944-.01769-.2101-.02688-.4063-.02688-.597 0-.1943.00918-.3903.02681-.5896.00452-.0548-.0113-.1084-.04227-.1501l-.03584-.0373-1.66678-1.34334c-.32073-.27814-.42242-.73284-.26538-1.11876l.05492-.11347 1.85393-3.28986c.21822-.37742.6563-.55931 1.07462-.45164l.11341.03662 1.94156.80187c.05967.02437.12733.01637.1832-.02356.31736-.22413.65091-.4233.99731-.59553.04365-.02176.07828-.06067.0969-.10858l.01303-.05062.29378-2.14213c.07263-.4263.41011-.75368.83475-.81323l.1179-.00947z" fill="#fff"/><g clip-rule="evenodd" fill-rule="evenodd"><path d="m9.65676 18.2574c.04564-.0062.09272.0051.13204.0332.3155.2261.6492.4266.997.5988.0471.023.0836.0631.1031.1121l.0137.0517.2906 2.1212.0301.1179c.1187.3779.4251.6427.7923.6974l.1244.0103h-2c-.42113-.0075-.78485-.2878-.91669-.7077l-.03008-.1179-.29064-2.1212c-.0101-.072-.05395-.1331-.11677-.1638-.1004-.0497-.19964-.1018-.2976-.1561l1.12373-.4638zm-4.0998-13.35277.11341.03662.85263.35275-.04066.06227-1.85393 3.28986-.05492.11347c-.14134.34733-.0731.75037.17577 1.03027l.08961.08849 1.66678 1.34334.03584.0373c.03097.0417.04679.0953.04227.1501-.01763.1993-.02681.3953-.02681.5896 0 .1907.00919.3869.02688.597.00537.0585-.01018.1137-.04119.1564l-.03595.038-1.65173 1.3301-.08642.0825c-.26592.2853-.34012.6963-.19669 1.0501l.05591.1155 1.85053 3.2839.04371.0668-.86182.3562c-.4042.1579-.85771.0209-1.11636-.3238l-.06553-.0992-1.85053-3.2839c-.21346-.3764-.15468-.8485.14078-1.1656l.08643-.0825 1.65172-1.3301c.05427-.0442.0843-.1164.07714-.1944-.01769-.2101-.02688-.4063-.02688-.597 0-.1943.00918-.3903.02681-.5896.00452-.0548-.0113-.1084-.04227-.1501l-.03584-.0373-1.66678-1.34334c-.32073-.27814-.42242-.73284-.26538-1.11876l.05492-.11347 1.85393-3.28986c.21822-.37742.6563-.55931 1.07462-.45164zm12.83104 13.35227 1.088.4481-.0231.0367c-.2329.3101-.6295.4515-1.0099.3537l-.1134-.0366-.8235-.3397c.2403-.1332.4736-.2796.6988-.4387.0419-.0299.0904-.0419.1372-.0357zm-6.2392-16.2569-.1179.00947c-.386.05414-.7.32962-.8085.69954l-.0263.11369-.2937 2.14213-.0131.05062c-.0186.04791-.0532.08682-.0969.10858-.3464.17223-.6799.3714-.99727.59553-.0419.02995-.09044.04193-.13726.03578l-.04594-.01222-1.11799-.46225c.09836-.05452.19788-.10682.2985-.15684.04365-.02176.07828-.06067.0969-.10858l.01303-.05062.29378-2.14213c.07263-.4263.41011-.75368.83475-.81323l.1179-.00947zm7.3074 3.24865.0208.03135-1.089.45052-.0448.0121c-.0456.00622-.0927-.00512-.1321-.03321-.2246-.16105-.4585-.3091-.7003-.44322l.829-.34141c.4042-.15782.8578-.0209 1.1164.32387z" fill="#ffcc59"/><path d="m4.5 5.27999.02082-.03135c.25861-.34476.71214-.48169 1.11634-.32387l.82904.34141c-.24175.13412-.4757.28217-.70032.44322-.03936.02809-.08645.03943-.13208.03322l-.04482-.01211zm13.92-.37537-.1134.03662-.8526.35275.0407.06227 1.8539 3.28986.0549.11347c.1414.34733.0731.75037-.1758 1.03027l-.0896.08849-1.6667 1.34335-.0359.0373c-.031.0417-.0468.0953-.0423.1501.0177.1993.0269.3952.0269.5896 0 .1907-.0092.3868-.0269.597-.0054.0585.0102.1137.0412.1564l.0359.038 1.6517 1.3301.0865.0825c.2659.2853.3401.6963.1967 1.0501l-.056.1155-1.8505 3.2839-.0437.0668.8618.3562c.4042.1579.8577.0209 1.1164-.3239l.0655-.0991 1.8505-3.2839c.2135-.3764.1547-.8486-.1407-1.1656l-.0865-.0825-1.6517-1.3301c-.0543-.0442-.0843-.1165-.0771-.1944.0177-.2102.0269-.4063.0269-.597 0-.1944-.0092-.3903-.0269-.5896-.0045-.0548.0113-.1084.0423-.1501l.0359-.0373 1.6667-1.34335c.3208-.27814.4225-.73284.2654-1.11876l-.0549-.11347-1.8539-3.28986c-.2183-.37741-.6563-.55931-1.0747-.45164zm-12.831 13.35228-1.08799.4481.02312.0367c.2329.3101.6295.4515 1.00983.3537l.11343-.0367.82354-.3396c-.24029-.1332-.47363-.2796-.69879-.4387-.04189-.0299-.09043-.0419-.13723-.0358z" fill="#ffcc59"/><path d="m13.86 2.00008c.4212.0075.7849.28781.9167.70763l.03.11785.2907 2.12116c.0101.07209.054.13319.1167.16385.348.17226.6817.37274.997.59884.0394.02809.0865.03943.1321.03321l.0448-.0121 1.9518-.80574c.4042-.15782.8578-.0209 1.1164.32387l.0655.09912 1.8505 3.28384c.2135.37648.1547.84862-.1408 1.16573l-.0864.08245-1.6531 1.33121c-.0545.044-.0848.1164-.0776.1965.0166.2141.0253.4063.0253.5953-.0013.2205-.0122.4408-.0328.6604l-.0051.0418 1.7522 1.4103c.2934.2494.4077.6456.3125 1.0058l-.0395.1184-.0553.1144-1.8539 3.2898c-.2182.3774-.6563.5593-1.0747.4517l-.1134-.0366-1.9416-.8019c-.0596-.0244-.1273-.0164-.1831.0235-.3174.2242-.6509.4233-.9973.5956-.0437.0217-.0783.0606-.097.1086l-.013.0506-.2938 2.1421c-.0726.4263-.4101.7537-.8348.8132l-.1178.0095-3.7112-.0001c-.42113-.0074-.78485-.2877-.91669-.7076l-.03008-.1179-.29064-2.1212c-.0101-.072-.05395-.1331-.11677-.1638-.34779-.1722-.68151-.3727-.99702-.5988-.03932-.0281-.0864-.0394-.13204-.0332l-.04481.0121-1.95177.8057c-.4042.1579-.85771.0209-1.11636-.3238l-.06553-.0992-1.85053-3.2839c-.21346-.3764-.15468-.8485.14078-1.1656l.08643-.0825 1.65172-1.3301c.05427-.0442.0843-.1164.07714-.1944-.01769-.2101-.02688-.4063-.02688-.597 0-.1943.00918-.3903.02681-.5896.00452-.0548-.0113-.1084-.04227-.1501l-.03584-.0373-1.66678-1.34334c-.32073-.27814-.42242-.73284-.26538-1.11876l.05492-.11347 1.85393-3.28986c.21822-.37742.6563-.55931 1.07462-.45164l.11341.03662 1.94156.80187c.05967.02437.12733.01637.1832-.02356.31736-.22413.65091-.4233.99731-.59553.04365-.02176.07828-.06067.0969-.10858l.01303-.05062.29378-2.14213c.07263-.4263.41011-.75368.83475-.81323l.1179-.00947zm-3.6836.99892-.28817 2.10151c-.05379.39697-.29843.74233-.6541.9196-.30126.14979-.59105.32283-.86457.51599-.29381.21-.6634.27321-1.00675.17649l-.12732-.04379-1.90602-.7878-1.82992 3.248 1.6282 1.3122c.24363.196.39924.4785.44058.7856l.01064.133-.0038.1349c-.01535.1736-.02315.3402-.02315.504 0 .1608.00788.3292.02298.5088.0332.3604-.09404.7156-.34441.9706l-.09958.0907-1.63345 1.3142 1.82992 3.248 1.9064-.7865c.29118-.1202.61379-.117.89863.0016l.11956.0579.11373.0718c.18178.1304.37017.2506.56359.3598l.2937.1556c.3197.156.552.4474.63924.7923l.02581.1317.28426 2.0848h3.6509l.2884-2.1006c.0419-.3087.1992-.5862.4344-.7777l.1054-.0767.1144-.0651c.3012-.1498.591-.3228.8646-.516.2938-.21.6634-.2732 1.0067-.1765l.1273.0438 1.9058.7868 1.8299-3.248-1.9353-1.5567c-.0913-.0735-.1524-.1755-.1759-.2871l-.0104-.0852.0044-.087c.0394-.2841.0599-.5703.0615-.854 0-.1578-.0075-.3248-.0218-.5087-.0324-.361.0961-.7163.3467-.97l.0996-.0901 1.6322-1.3152-1.8299-3.248-1.9052.78754c-.2912.12016-.6137.11692-.8986-.00168l-.1196-.05787-.1138-.07186c-.2725-.19541-.56-.36813-.8572-.5153-.3197-.15605-.5519-.44738-.6392-.79231l-.0259-.13171-.2855-2.08481zm1.8236 6.001c.1151 0 .2302.0057.346.01715 1.6556.16682 2.9717 1.48695 3.1371 3.13975.0113.1139.0169.2284.0169.3431 0 1.9196-1.5755 3.5-3.5 3.5s-3.5-1.5804-3.5-3.5 1.5755-3.5 3.5-3.5zm0 1c-1.3669 0-2.5 1.1281-2.5 2.5s1.1331 2.5 2.5 2.5 2.5-1.1281 2.5-2.5c0-.0825-.0041-.1649-.0121-.2459-.1193-1.1823-1.0654-2.1243-2.2432-2.2421-.0815-.008-.1632-.012-.2447-.012z" fill="#16182a"/></g></svg>