<svg height="19" viewBox="0 0 14 19" width="14" xmlns="http://www.w3.org/2000/svg"><path d="m7 0c2.05782257 0 3.75 1.67358208 3.75 3.71428571 0 .27614238-.2238576.5-.5.5-.27614237 0-.5-.22385762-.5-.5 0-1.48593029-1.24200382-2.71428571-2.75-2.71428571-1.45214447 0-2.65763484 1.13905112-2.74493846 2.55029165l-.00506154.16399406v3.35671429l7.3.00042857c1.2971047 0 2.3616884 1.00157096 2.4447797 2.26883309l.0052203.15973834v7.0714286c0 1.3417946-1.0988506 2.4285714-2.45 2.4285714h-9.1c-1.35114663 0-2.45-1.0867781-2.45-2.4285714v-7.0714286c0-1.34179616 1.09885213-2.42857143 2.45-2.42857143l.8-.00042857v-3.35671429c0-2.04070363 1.69217743-3.71428571 3.75-3.71428571zm4.55 8.07142857h-9.1c-.80132181 0-1.45.64154894-1.45 1.42857143v7.0714286c0 .78702.64867975 1.4285714 1.45 1.4285714h9.1c.8013227 0 1.45-.6415499 1.45-1.4285714v-7.0714286c0-.78702404-.6486757-1.42857143-1.45-1.42857143z"/></svg>