<svg fill="none" viewBox="0 0 24 24" xmlns="http://www.w3.org/2000/svg"><path clip-rule="evenodd" d="m3.63523 3.65803c.18887-.20146.50529-.21166.70674-.0228l16.00003 14.99997c.2014.1889.2116.5053.0228.7068-.1889.2014-.5053.2116-.7068.0228l-3.2243-3.0228c-.4925.9831-1.5089 1.658-2.6837 1.658h-7c-1.65685 0-3-1.3431-3-3v-6c0-1.26165.77882-2.3414 1.88191-2.78472l-1.97388-1.85051c-.20146-.18886-.21166-.50528-.0228-.70674zm2.85197 3.35908c-.98037.12868-1.7372.9674-1.7372 1.98289v6c0 1.1046.89543 2 2 2h7c.8908 0 1.6465-.5828 1.9048-1.3882zm3.04681-.69837c.07475-.19217.2598-.31874.46599-.31874h3.5c1.5384 0 2.8064 1.15803 2.9798 2.64996l1.276-.72914c1-.57142 2.2442.15063 2.2442 1.30236v6.27682c0 .2022-.1218.3846-.3087.4619-.1868.0774-.4019.0347-.5449-.1083l-3.4923-3.4924-5.99196-5.49262c-.152-.13933-.20288-.35767-.12813-.54984zm6.96599 5.47416 2.5 2.5v-5.06972c0-.38391-.4147-.62459-.7481-.43412l-1.5.85714c-.1558.08902-.2519.2547-.2519.4341zm-1-.9295v-1.8634c0-1.10457-.8954-2-2-2h-2.2146z" fill="#000" fill-rule="evenodd"/></svg>