<svg fill="none" viewBox="0 0 24 24" xmlns="http://www.w3.org/2000/svg"><path clip-rule="evenodd" d="m3.75 9c0-1.65685 1.34315-3 3-3h7c1.5384 0 2.8064 1.15803 2.9798 2.64996l1.276-.72914c1-.57142 2.2442.15063 2.2442 1.30236v5.55362c0 1.1518-1.2442 1.8738-2.2442 1.3024l-1.276-.7292c-.1734 1.492-1.4414 2.65-2.9798 2.65h-7c-1.65685 0-3-1.3431-3-3zm13 5.2098 1.7519 1.0011c.3334.1905.7481-.0502.7481-.4341v-5.55362c0-.38391-.4147-.6246-.7481-.43412l-1.7519 1.0011zm-10-7.2098c-1.10457 0-2 .89543-2 2v6c0 1.1046.89543 2 2 2h7c1.1046 0 2-.8954 2-2v-6c0-1.10457-.8954-2-2-2z" fill="#000" fill-rule="evenodd"/></svg>