<svg height="20" viewBox="0 0 17 20" width="17" xmlns="http://www.w3.org/2000/svg"><path d="m10.4321065 2.05141332c.0267164.04800828.0203424.10761178-.0157994.14890703-1.10127463 1.28408584-1.39813939 3.19146561-.2955764 4.43330688.8402805.9464683 2.18675 1.23038167 3.3860077.81925992.0792679-.02685209.166605-.01396851.2346845.03465005.0681473.04855074.1087645.12693714.1091036.21061259l.0004785.14563109.0003678 1.24396949c-.0026169 1.17121013-.0144758 2.73144903-.0528553 4.07717263-.0916768 3.2153816-3.0626977 6.835077-6.835077 6.835077-3.77235222 0-6.84516008-3.0600531-6.958522-6.8307373-.06509597-2.1651869.5151329-5.35577099 1.79013921-7.16055679.47787902-.67645564.45023358-2.14620062.39740413-2.91521458-.00816412-.11527412.04215642-.22681878.13391461-.29700037.09175142-.0701816.21264006-.08950696.32168938-.0513987.36247606.12964948.9579279.18118379 1.37526766.56647057.62386352.57603154.85241141 1.4715758 1.18926271 1.47659361.35767524.00535686.33289131-1.97322162 1.84299579-2.35972895 1.06709927-.27313185 2.5470833-.38067582 3.24171151-.44217795.0541789-.0089507.1081543.0171555.134803.06516378zm-3.42167484 7.35909955c-2.33529085 0-4.23124492 1.89598793-4.23124492 4.23125843 0 2.3352841 1.89595407 4.2312382 4.23124492 4.2312382 2.33525016 0 4.23123814-1.8959541 4.23123814-4.2312382 0-2.3352705-1.89598798-4.23125843-4.23123814-4.23125843zm6.10986714-9.39802743c.2238352.06807954.7504345.32853123 1.0692014 1.01637866.1398207.30174695.7252776-.41993682.8403483-.06509597.0453637.13968511.2274968.49920473.2592311.81369964.0777761.77254-.0446179 1.71521104.0970337 1.70876925.1037467-.00474658.2095955-.15209403.2784209-.18674407.1720297-.08645559.2087818-.034311.2441099.1216481.0633329.27896336.1924399.3772854.016274.84624762-.3337525.88889905-1.033941 1.52860259-1.3149386 1.84465709-1.1246008 1.26489609-3.0266915 1.28469612-4.0409681.14226182-1.14663839-1.29147695-.4709286-3.44961182 1.0564534-4.37349995.3390415-.20518793.8513332-.59861171 1.0754397-.98138958.2640455-.45099302.0858453-.98844164.4193943-.88693261z" fill="#16182a"/></svg>