<svg fill="none" height="24" viewBox="0 0 24 24" width="24" xmlns="http://www.w3.org/2000/svg"><path clip-rule="evenodd" d="m14 2c.2455 0 .4496.17688.4919.41012l.0081.08988v2h6.9737c.2907 0 .5263.22386.5263.5 0 .24546-.1862.44961-.4317.49194l-.0946.00806h-1.9756l.0008.03335-.9722 14.54475c-.069 1.0553-.8563 1.8437-1.8966 1.9164l-.1579.0055h-8.94442c-1.06555 0-1.91004-.7432-2.04032-1.7658l-.01412-.1554-.97223-14.54545c-.00074-.01118-.00112-.0223-.00113-.03335h-1.97366c-.29068 0-.52632-.22386-.52632-.5 0-.24546.18618-.44961.43171-.49194l.09461-.00806h6.97368v-2c0-.24546.17688-.44961.41012-.49194l.08988-.00806zm-3.5 2.5h3l-.001-1.5h-3zm-1.7909 3.50033c.2453-.00892.45574.16042.50653.39198l.01131.08952.36364 9.99997c.01003.276-.20554.5078-.4815.5179-.2453.0089-.45574-.1604-.50652-.392l-.01132-.0895-.36364-10.00003c-.01003-.27596.20554-.5078.4815-.51784zm3.3182-.00033c.2454 0 .4496.17688.4919.41012l.0081.08988v10c0 .2761-.2239.5-.5.5-.2455 0-.4496-.1769-.492-.4101l-.008-.0899v-10c0-.27614.2238-.5.5-.5zm3.7403.42806c-.0338-.23463-.2314-.41881-.4767-.42773-.276-.01003-.5078.20554-.5178.4815l-.3637 9.99997.0048.0901c.0338.2347.2314.4188.4767.4278.276.01.5078-.2056.5179-.4815l.3636-10.00003zm-10.26648-2.92806h12.99778l-.97 14.5121-.0141.1223c-.0862.5175-.4951.8656-1.0426.8656h-8.94442l-.12401-.0061c-.52624-.0529-.90295-.4418-.9323-.9759z" fill="#16182a" fill-rule="evenodd"/></svg>