<svg enable-background="new 0 0 700.15 531.68" viewBox="0 0 700.15 531.68" xmlns="http://www.w3.org/2000/svg"><path clip-rule="evenodd" d="m296.62 8.25c34.05 12.66 47.16 77.4 104.81 87.53 39.9 7.01 63.3-39.3 112.13-18.24 51.29 22.12 54.52 184.62 53 223.8-5.28 136.8-89.39 228.06-216.56 228.06s-223.16-102.83-215.34-232.04c2.51-41.46 36.98-114.85 57.18-167.15 17.94-46.45 29.25-150.05 104.78-121.96zm53.34 181.93h.03c78.25 0 142.64 64.39 142.64 142.64s-64.39 142.64-142.64 142.64-142.64-64.39-142.64-142.64c.04-78.22 64.39-142.58 142.61-142.64z" fill="#ffffff" fill-rule="evenodd"/></svg>